PathFileType	4	(X/Y/Z)	/home/abdul/Desktop/myosuite/custom_workspace/IK/output/01_12_1.trc
DataRate	CameraRate	NumFrames	NumMarkers	Units	OrigDataRate	OrigDataStartFrame	OrigNumFrames
200.0	200.0	39	3	mm	200.0	929	1486
Frame#	Time	V_Shoulder			V_Elbow			V_Wrist		
		X1	Y1	Z1	X2	Y2	Z2	X3	Y3	Z3

929	4.64	26.036628352688854	813.2644301814752	303.2533058449061	-78.07615492950762	624.5982202249519	66.88048538159416	-3.3282923376783797	401.20299015827743	110.59908958547678
930	4.645	26.00307459406181	812.8481809298422	303.26776104594404	-77.85207068675753	623.5644729292087	67.30882353223132	-4.013900197322862	399.54804890357616	109.56833783463024
931	4.65	25.970779198601306	812.4297838193692	303.2819916704933	-77.62152594657083	622.5329513355553	67.73275663757013	-4.694502949986175	397.91318262828224	108.55191444762471
932	4.655	25.93973324484649	812.0092278674887	303.2959436150235	-77.38479604630959	621.5041278962736	68.15191831770143	-5.369814574532321	396.29855246879276	107.54978405038788
933	4.66	25.90992609706477	811.5865004987545	303.3095602627974	-77.14215726988569	620.4784564077388	68.56594805609505	-6.03954830090483	394.70430007305896	106.561904366388
934	4.665	25.881345437792078	811.1615876443193	303.32278258144464	-76.89388621304448	619.4563715768124	68.97449149137618	-6.703416957045768	393.13054756770043	105.58822631520113
935	4.67	25.85397730869181	810.7344738594761	303.3355492406378	-76.64025915084797	618.4382886445708	69.37720072716215	-7.361133333994044	391.57739755672253	104.62869411443234
936	4.675	25.82780615958609	810.3051424589536	303.34779674978796	-76.38155140961554	617.4246030682887	69.77373465999781	-8.012410569024787	390.04493315281195	103.68324538493053
937	4.68	25.80281490544364	809.8735756695218	303.3594596155478	-76.11803674559158	616.4156902623731	70.16375932528	-8.65696254659634	388.5332180420871	102.75181125925474
938	4.685	25.778984991047178	809.4397547993472	303.37047051877505	-75.84998673261053	615.4119053986811	70.54694826092079	-9.294504316768958	387.0422965830711	101.83431649336703
939	4.69	25.756296463008642	809.0036604234093	303.38076051047454	-75.57767016101988	614.4135832664003	70.92298288836001	-9.924752530650078	385.5721939405416	100.9306795815417
940	4.695	25.73472804875279	808.5652725841813	303.39025922609835	-75.30135245009866	613.4210381914078	71.29155291038664	-10.54742589230597	384.12291625478895	100.04081287449664
941	4.7	25.7142572420473	808.1245710066714	303.3988951174486	-75.02129507617528	612.4345640147689	71.65235672506772	-11.162245626459516	382.69445084669354	99.16462270077125
942	4.705	25.69486039462056	807.6815353268333	303.4065957012895	-74.73775501860344	611.4544341297919	72.00510185491044	-11.768935961170866	381.28676645889794	98.30200949140027
943	4.71	25.676512813376394	807.2361453322569	303.413287823643	-74.45098422570335	610.4809015768171	72.3495053902011	-12.36722462457332	379.8998135332184	97.45286790796317
944	4.715	25.65918886268828	806.7883812139906	303.41889793861156	-74.16122910271577	609.5141991947024	72.68529444527594	-12.956843354613131	378.53352452430033	96.61708697412716
945	4.72	25.64286207123269	806.3382238282693	303.42335240044423	-73.86873002374823	608.5545398277638	73.01220662628386	-13.53752842062155	377.18781424938174	95.79455021084495
946	4.725	25.627505242802556	805.8856549668723	303.4265777674431	-73.57372086961755	607.6021165867392	73.32999050880287	-14.10902115543195	375.86258027388317	94.98513577541661
947	4.73	25.61309057052472	805.4306576347864	303.4285011161975	-73.27642859340747	606.6571031621684	73.6384061234727	-14.671068496646198	374.55770333239246	94.18871660467325
948	4.735	25.59958975389146	804.9732163338191	303.4290503645289	-72.97707281546666	605.7196541884264	73.93722544761007	-15.223423535552687	373.2730477844639	93.40516056258863
949	4.74	25.586974118003706	804.5133173507702	303.42815460144215	-72.67586544947048	604.7899056564866	74.22623290058715	-15.765846072104196	372.00846210449123	92.63433059267007
950	4.745	25.575214734413503	804.0509490487584	303.4257444222985	-72.37301036105912	603.8679753733591	74.50522584057981	-16.298103174276587	370.76377940475896	91.87608487551725
951	4.75	25.564282542944444	803.5861021602799	303.4217522673617	-72.06870306044705	602.9539634660086	74.77401506013565	-16.819969740049064	369.5388179906139	91.1302769919692
952	4.755	25.554148473860987	803.1187700805617	303.41611276181453	-71.76313043027133	602.0479529274287	75.03242527787512	-17.331229060173403	368.3333819465364	90.39675609227758
953	4.76	25.54478356974997	802.6489491597644	303.40876305531134	-71.45647048981172	601.150010202422	75.28029562352219	-17.831673379832964	367.1472617517302	89.6753670717531
954	4.765	25.536159106470226	802.1766389925807	303.399643159105	-71.14889219657046	600.2601858105181	75.51748011336785	-18.321104457231836	365.98023492368975	88.96595075332601
955	4.77	25.528246712518314	801.7018427037855	303.3886962787872	-70.84055528604759	599.3785150033395	75.7438481131974	-18.79933411710014	364.8320666880478	88.26834407744417
956	4.775	25.52101848615187	801.2245672282907	303.3758691406884	-70.53161015038728	598.5050184536141	75.95928478566331	-19.266184797052162	363.70251067285835	87.58238029970127
957	4.78	25.514447109606078	800.7448235842927	303.36111231001496	-70.22219775640512	597.6397029729349	76.16369151905604	-19.721490084689577	362.5913096253312	86.9078891965456
958	4.785	25.508505959734478	800.2626271381156	303.34438049884074	-69.91244960333474	596.7825622552651	76.35698633441464	-20.165095243302037	361.4981961489095	86.24469727936612
959	4.79	25.503169214402664	799.7779978594016	303.3256328621351	-69.6024877204583	595.9335776431097	76.5391042679265	-20.596857723982502	360.42289345846825	85.59262801719113
960	4.795	25.49841195396269	799.2909605653421	303.3048332800774	-69.29242470460822	595.0927189131978	76.7099977255877	-21.016647661945427	359.36511615131417	84.95150206816358
961	4.8	25.494210257141145	798.8015451526995	303.2819506249977	-68.98236379735084	594.2599450784624	76.86963680713464	-21.424348354813812	358.3245709915884	84.32113751988129
962	4.805	25.4905412906888	798.3097868164176	303.25695901137277	-68.67239900148577	593.4352052030581	77.01800959630908	-21.819856720626763	357.3009577056026	83.7013501386088
963	4.81	25.487383392171008	797.8157262536621	303.2298380273989	-68.36261523631971	592.6184392271291	77.15512241458633	-22.20308373331422	356.2939697855864	83.09195362728323
964	4.815	25.48471614532654	797.3194098521711	303.2005729467537	-68.05308853099953	591.8095787980235	77.28100003557715	-22.573954833389976	355.3032952992855	82.49275989215064
965	4.82	25.482520447487186	796.8208898618108	303.16915491924686	-67.74388625501624	591.0085481046539	77.39568585740963	-22.932410311629624	354.3286177028268	81.90357931778436
966	4.825	25.480778568623794	796.3202245482695	303.13558113915036	-67.43506738482074	590.2152647117281	77.49924203050647	-23.278405663527536	353.3696166542531	81.32422105015456
967	4.83	25.479474201661386	795.8174783278473	303.09985499009605	-67.12668280532391	589.4296403906076	77.59174953829648	-23.61191191236722	352.42596882513413	80.75449328733835
